<svg width="275" height="290" viewBox="0 0 275 290" fill="none" xmlns="http://www.w3.org/2000/svg">
<g clip-path="url(#clip0)">
<path d="M274.544 112.258C273.97 110.884 272.9 109.806 271.573 109.262L249.715 100.312L262.282 66.1823C262.798 64.7821 262.765 63.2228 262.19 61.8482C261.616 60.4735 260.547 59.3956 259.22 58.8519L225.586 45.0791V28.3203C225.586 24.4971 224.877 20.7871 223.475 17.298C222.121 13.9223 220.182 10.8977 217.717 8.29785C215.251 5.69805 212.383 3.65332 209.182 2.22598C205.874 0.747656 202.356 0 198.73 0H5.37109C3.9585 0 2.57275 0.606055 1.57373 1.65957C0.57417 2.71309 0 4.17441 0 5.66406V284.336C0 285.826 0.57417 287.287 1.57373 288.34C2.57329 289.394 3.9585 290 5.37109 290H198.73C202.356 290 205.874 289.252 209.183 287.774C212.384 286.347 215.252 284.308 217.717 281.702C220.183 279.102 222.122 276.078 223.475 272.702C224.877 269.213 225.586 265.503 225.586 261.68V253.829C225.586 250.708 223.174 248.165 220.215 248.165C217.255 248.165 214.849 250.703 214.844 253.824V253.829V261.68C214.828 271.031 207.598 278.655 198.73 278.672H32.2266V11.3281H198.73C207.598 11.3451 214.828 18.9689 214.844 28.3203V202.853C214.844 205.979 217.255 208.517 220.215 208.517C223.174 208.517 225.586 205.979 225.586 202.853V195.619L237.915 200.668C238.554 200.93 239.212 201.054 239.859 201.054C242.01 201.054 244.041 199.681 244.867 197.438L274.636 116.592C275.151 115.192 275.119 113.633 274.544 112.258V112.258ZM21.4844 278.672H10.7422V11.3281H21.4844V278.672ZM225.586 57.2314L250.325 67.3616L239.702 96.2109L225.586 90.4307V57.2314ZM236.797 188.058L225.586 183.467V102.583L262.678 117.772L236.797 188.058Z" fill="#FDAD19"/>
<path d="M220.215 234.005C223.181 234.005 225.586 231.469 225.586 228.341C225.586 225.213 223.181 222.677 220.215 222.677C217.248 222.677 214.844 225.213 214.844 228.341C214.844 231.469 217.248 234.005 220.215 234.005Z" fill="#FDAD19"/>
<path d="M92.1143 189.746H155.359C158.325 189.746 160.73 187.21 160.73 184.082V135.125C171.777 132.436 180.066 121.94 180.066 109.529C180.066 95.0452 168.892 83.2617 155.158 83.2617C149.35 83.2617 143.761 85.4282 139.346 89.2458C134.932 85.4282 129.342 83.2617 123.535 83.2617C117.728 83.2617 112.138 85.4282 107.724 89.2458C103.309 85.4282 97.7201 83.2617 91.9124 83.2617C78.1779 83.2617 67.0039 95.0452 67.0039 109.529C67.0039 122.144 75.4806 132.71 86.7427 135.227V184.082C86.7432 187.21 89.1484 189.746 92.1143 189.746V189.746ZM77.7466 109.529C77.7466 101.292 84.1017 94.5898 91.9129 94.5898C96.4289 94.5898 100.716 96.8974 103.38 100.762C104.39 102.228 106.006 103.096 107.724 103.096C109.443 103.096 111.058 102.228 112.069 100.762C114.733 96.8974 119.019 94.5898 123.535 94.5898C128.051 94.5898 132.338 96.8974 135.002 100.762C136.013 102.228 137.628 103.096 139.347 103.096C141.065 103.096 142.68 102.228 143.691 100.762C146.355 96.8974 150.642 94.5898 155.158 94.5898C162.969 94.5898 169.324 101.292 169.324 109.529C169.324 117.681 163.035 124.38 155.305 124.463C155.278 124.463 146.497 124.468 146.497 124.468C143.531 124.468 141.126 127.004 141.126 130.132C141.126 133.26 143.531 135.796 146.497 135.796H149.988V178.418H97.4854V135.796H100.977C103.943 135.796 106.348 133.26 106.348 130.132C106.348 127.004 103.943 124.468 100.977 124.468C100.977 124.468 91.9516 124.464 91.8581 124.468C84.0716 124.437 77.7466 117.747 77.7466 109.529V109.529Z" fill="#FDAD19"/>
</g>
<defs>
<clipPath id="clip0">
<rect width="275" height="290" fill="white"/>
</clipPath>
</defs>
</svg>
